PathFileType	4	(X/Y/Z)	0_1_22_p0_0-274.trc
DataRate	CameraRate	NumFrames	NumMarkers	Units	OrigDataRate	OrigDataStartFrame	OrigNumFrames
60	60	6	27	m	60	137	274
Frame#	Time	RHip			RKnee			RAnkle			RBigToe			RSmallToe			RHeel			LHip			LKnee			LAnkle			LBigToe			LSmallToe			LHeel			Neck			Head			Nose			RShoulder			RElbow			RWrist			RThumb			RIndex			RPinky			LShoulder			LElbow			LWrist			LThumb			LIndex			LPinky		
		X1	Y1	Z1	X2	Y2	Z2	X3	Y3	Z3	X4	Y4	Z4	X5	Y5	Z5	X6	Y6	Z6	X7	Y7	Z7	X8	Y8	Z8	X9	Y9	Z9	X10	Y10	Z10	X11	Y11	Z11	X12	Y12	Z12	X13	Y13	Z13	X14	Y14	Z14	X15	Y15	Z15	X16	Y16	Z16	X17	Y17	Z17	X18	Y18	Z18	X19	Y19	Z19	X20	Y20	Z20	X21	Y21	Z21	X22	Y22	Z22	X23	Y23	Z23	X24	Y24	Z24	X25	Y25	Z25	X26	Y26	Z26	X27	Y27	Z27
138	2.3	0.11582531684476423	0.21334308307572633	0.06419196240010393	0.12281018258033778	0.23248858879930254	-0.3897270578737126	0.1545235952101587	0.20336519089497895	-0.7870334939090282	0.17105260494534133	0.051756588919418	-0.7877315033247881	0.09880093053959847	0.08359197124782958	-0.7978752541684841	0.167995105837415	0.22367501705785495	-0.8255304111395678	0.32766591338878687	0.21495047573234854	0.07074147733748559	0.34467536387417563	0.24334709530557475	-0.3929463559674267	0.3555865300081909	0.2505019625730445	-0.8321024191725565	0.3225249833768111	0.05777753003483849	-0.7878548968486501	0.37050639411567965	0.10846375764778915	-0.8115605094960007	0.3451685532809833	0.28645086014063625	-0.8839762639388477	0.21734000251078414	0.2774888016196711	0.5204243480536449	0.19935681402580338	0.17858185316426411	0.7888423277891283	0.19606117689340094	0.15611016297374544	0.6282519329451121	0.05951545741950929	0.2598246454264698	0.48580419774660116	-0.005633375469992731	0.2992511840645992	0.22224821166391306	0.014845499379125342	0.18822005709251122	0.0013241194112224677	0.0973954954371098	0.1558124816148082	-0.09606365490899463	0.0906526405915732	0.14592085666096657	-0.12398996425319274	0.022631105264051918	0.2004744463154304	-0.14066651470539934	0.365808873899862	0.27172553232907076	0.47596000107770076	0.429418841891932	0.2948651126397081	0.21209183700396456	0.3969069614999545	0.17589644192570414	0.010484711171013038	0.33609448703626615	0.14936456714711202	-0.07510932460602911	0.3490811545484983	0.12829469969591875	-0.09645708488966569	0.4164248215883123	0.15663299399555358	-0.10762333948915782
139	2.316666666666667	0.11623905587592594	0.21229804846658118	0.06837027688421848	0.12331164982968808	0.23197701537186777	-0.38535157507182266	0.15448887539597964	0.20339650186109215	-0.786986250329748	0.17599983275854458	0.06514284038355203	-0.798254962015192	0.09922264528864949	0.08547319074747652	-0.7945017615865829	0.16802016593841468	0.2236277733332306	-0.8253682908359156	0.32776970957492235	0.21474417029936313	0.07075947203456395	0.3446857772793336	0.24333090626165488	-0.3930136910078775	0.3556703603205028	0.25024203945213674	-0.8319402101013855	0.3225409856045951	0.05793902203865392	-0.7879930255190698	0.3704944264326657	0.10867036663269806	-0.8116529184073998	0.3451288235399243	0.28643822352285064	-0.8838997952185453	0.2173130860813678	0.2774771161211518	0.5204385754239593	0.19937840795383752	0.17973977614931097	0.7920043246683013	0.19601332425139123	0.15601900139709687	0.6283943997835021	0.059499999198713016	0.2602377689307309	0.4857654760172367	-0.009660860902291277	0.3119462437393896	0.21441429342879495	0.01487377687421681	0.18834036604702656	0.0011993368787889007	0.10231486879333607	0.16856257721706958	-0.10195414587889673	0.09478980634826004	0.15989812649166985	-0.1275249950722415	0.023128951795930282	0.2002645843612784	-0.14049565388512406	0.36581417507448744	0.27176561095951096	0.4759383553084623	0.4296094681066357	0.2937646011870907	0.20883505659230372	0.390590933726702	0.16304843606468114	0.01607333076208434	0.33549225012697415	0.1508338208213203	-0.07174363878429234	0.3468409045497794	0.13946081352524137	-0.10158221157657298	0.4045819370255151	0.13137723189867723	-0.09571633508189163
140	2.3333333333333335	0.11579767171544773	0.21340814642423303	0.06417644569457943	0.11804127980558962	0.2176762783293607	-0.3814067881987349	0.15452982932625736	0.20339935133558992	-0.7870601001798109	0.17594485329008097	0.06518238985382249	-0.7982321831849857	0.09919654365576856	0.08549766235978229	-0.7944938988111988	0.17338373719822311	0.2382332031865653	-0.8362036050400173	0.3277127386960508	0.21516469584109654	0.07068333422715427	0.3442959760293189	0.24454619929717514	-0.3981690552698676	0.3535381173747706	0.2399666528935846	-0.8245518305623063	0.3225512141159894	0.05794351427411506	-0.7880534332324765	0.37051808133695113	0.1087144939627442	-0.8117075724443598	0.3450899172291474	0.28651089059096274	-0.8838768653430478	0.21456135071549473	0.28955691690729257	0.5176900628775833	0.19937467452818972	0.17981412445337566	0.7921444693369398	0.19595219521395588	0.15705736311950497	0.631718126867229	0.059394458178256414	0.26016755915468676	0.48574121515471747	-0.009680332336453126	0.3119658978345549	0.21435686590318415	0.015147160844611433	0.18814362585203942	0.0011828931331736908	0.10611877649990802	0.15833368196091677	-0.0924815906028116	0.09558868587998968	0.15868298060258276	-0.12321174025001969	0.035985466512008804	0.18597658405943276	-0.12997495460082567	0.36578489217336385	0.27168294943154264	0.4759471672639572	0.429306223371721	0.2949633326934067	0.21206057702396272	0.3843401247256819	0.15059047485595736	0.0214398179430742	0.33599757502638744	0.1510950761928987	-0.07076293106567884	0.34143772827289454	0.12799888515606164	-0.0959336250186088	0.400204435107466	0.13343033594627873	-0.09649958377123635
141	2.35	0.1157081112612021	0.2131876421459794	0.06420088934834793	0.11809649583974781	0.217513700783844	-0.38137469924678735	0.15393240304712386	0.20613543033722892	-0.7791344579103022	0.17604320758830563	0.06517342810855746	-0.7982907474310282	0.0992586486373668	0.08551317540593162	-0.7945366059608726	0.17325413653666938	0.23840708746107844	-0.836462931310568	0.32737348050583953	0.21593549430460385	0.0668307135107476	0.3418941171253156	0.25591699816654756	-0.4093333716803594	0.3578741406634303	0.2371846650245075	-0.8226347192355434	0.322599829477543	0.05801780722326004	-0.7879598440304766	0.3765975915495612	0.1217174506903779	-0.8216336385525234	0.3451459672855636	0.28648367724491197	-0.8837486782334694	0.2145553290979714	0.2895543273484506	0.5176453214717707	0.19654275717630124	0.19099623904528215	0.7905291408263738	0.19594880732202535	0.15708019561246522	0.6316919105988698	0.05944529931270694	0.26007878337529106	0.48573625637264006	-0.009579041043568347	0.31296921918710024	0.21809685086250263	0.01547704469105179	0.18929205952480466	0.004802010330559984	0.11062930618188872	0.15715053280392152	-0.09173536135981544	0.09606558953777172	0.1572218538885261	-0.11860584428477144	0.03652679756117471	0.18501903450199852	-0.12579757981636921	0.365712372063254	0.2707181216831971	0.47225597915712203	0.4294188525579476	0.29510732526812644	0.21197324408951693	0.3786628673802024	0.16365169209127392	0.020442872297130665	0.3356693665360193	0.15126157630479695	-0.06267877372772633	0.34121488322925486	0.1278636971106152	-0.09568525661810647	0.38034483146210935	0.13511774456378622	-0.09646168472880558
142	2.3666666666666667	0.11574369901957339	0.21341023612880503	0.064167745775457	0.12284022917260691	0.23283902210507434	-0.39021995464513753	0.15480033548243066	0.20514333551265332	-0.7835732774751547	0.16640959603562894	0.053775817100163506	-0.7890108488672212	0.09914749199605717	0.08544785784615293	-0.7944075834832269	0.16795806047198564	0.22349684538854886	-0.8254258430962222	0.3250964536805428	0.22774791219830412	0.06191723104266555	0.3440631463837837	0.24305162185745058	-0.4023919873640971	0.3535433325105168	0.23985089014711866	-0.8244602968813688	0.3225613430331997	0.05787896856923915	-0.7878138116886566	0.370522217127609	0.10861125096532291	-0.8115488441046507	0.34509813897949043	0.2863380240724497	-0.883758053793236	0.2145537860263099	0.2895386351801452	0.5176792225850242	0.19655095373934825	0.1908929134967132	0.7904714620459092	0.19596499264456665	0.15707940318866884	0.631771730680967	0.05944322247532113	0.25999226182974294	0.4857100944673863	-0.009129720592814727	0.3122624568084775	0.22210703084254507	0.016036315727128516	0.18839718422225393	0.009558248839303212	0.11082879038666424	0.15700530345754957	-0.08761422250483457	0.09257761843028608	0.14494870906103044	-0.10786844293690796	0.04815402023370364	0.18646249441219961	-0.13030861091652932	0.3657419675019805	0.2707387511423634	0.4722582909369032	0.42959034337540863	0.29429357720953336	0.21627218126395698	0.3745067573097866	0.16591341793985945	0.0194328203898652	0.33121221997188083	0.15152574292917523	-0.0670850756248363	0.3372354940510815	0.12968483111617618	-0.09665381097873041	0.37421793156122735	0.1204900539697973	-0.09329874685184945
143	2.3833333333333333	0.11565836553576404	0.21354788304786493	0.06421498474496443	0.12280181120450809	0.23299885753361016	-0.3900915039568797	0.1539354427497208	0.20610646572009209	-0.779104993922289	0.16640055501442969	0.05385468571824962	-0.7890249411704056	0.09916865056310782	0.08548052951361086	-0.7944062709996086	0.17326577452836245	0.23843465157666988	-0.8364143490363504	0.3250155928593787	0.22768210816718962	0.062328445906447254	0.3420484254701809	0.25625530825629544	-0.40969574878035836	0.3513231158154563	0.25302366885123145	-0.8336939888315855	0.32257285677691466	0.0578280067792451	-0.7878120610750383	0.3704968483868433	0.108478573895217	-0.8115061840241539	0.34544488220692765	0.28817371315498547	-0.8806906087667913	0.2145428519518122	0.2895151515560847	0.5176832574799733	0.1965601390031264	0.1916262233537953	0.793320774970064	0.19600333308187212	0.15713333629748671	0.6317357138086179	0.05936521797255106	0.26007906975411216	0.48567209208499007	-0.01351930092736032	0.2990908130204256	0.22289282662888915	0.01563260568282384	0.1891566885214578	0.004714794251631921	0.11133059033459604	0.15724714580305496	-0.08769560573119012	0.10415293269450618	0.14551569783125562	-0.10881633030350188	0.05573857097804712	0.17307497019215226	-0.12746396541550611	0.365741781368814	0.27066576412241733	0.4723142977318705	0.429624255766487	0.29433795677070557	0.21635195598782142	0.36861336546550566	0.1532183473106334	0.025079679005936995	0.33532192266670463	0.1510554105818902	-0.06255972998535805	0.33720814706620567	0.12931348862123046	-0.09629621574703452	0.37614416211375445	0.10998119593897589	-0.08419514146662382
